<svg width="27" height="24" viewBox="0 0 27 24" fill="none" xmlns="http://www.w3.org/2000/svg">
<path d="M13.7273 12.64C13.3473 12.6414 12.9783 12.7601 12.677 12.9778C12.3758 13.1954 12.1589 13.5001 12.0598 13.8449C11.9607 14.1897 11.9848 14.5555 12.1284 14.8862C12.2721 15.2168 12.5273 15.494 12.8548 15.675V18H14.621V15.675C14.8802 15.531 15.0952 15.3263 15.2453 15.081C15.3954 14.8357 15.4754 14.558 15.4775 14.275C15.4775 14.0595 15.4322 13.8461 15.3441 13.647C15.256 13.448 15.1269 13.2673 14.9642 13.1154C14.8016 12.9634 14.6085 12.8432 14.3963 12.7616C14.184 12.68 13.9566 12.6387 13.7273 12.64Z" stroke="black" stroke-width="1.25" stroke-linecap="round" stroke-linejoin="round"/>
<path d="M20.2654 8.88501H7.18384C5.91459 8.88501 4.88566 9.85207 4.88566 11.045V19.59C4.88566 20.7829 5.91459 21.75 7.18384 21.75H20.2654C21.5346 21.75 22.5636 20.7829 22.5636 19.59V11.045C22.5636 9.85207 21.5346 8.88501 20.2654 8.88501Z" stroke="black" stroke-width="1.25" stroke-linecap="round" stroke-linejoin="round"/>
<path d="M8.06162 8.885V7.58C8.06162 6.1664 8.65909 4.81069 9.72261 3.81112C10.7861 2.81155 12.2286 2.25 13.7326 2.25C15.2366 2.25 16.6791 2.81155 17.7426 3.81112C18.8061 4.81069 19.4036 6.1664 19.4036 7.58V8.885" stroke="black" stroke-width="1.25" stroke-linecap="round" stroke-linejoin="round"/>
</svg>
