<svg width="27" height="24" viewBox="0 0 27 24" fill="none" xmlns="http://www.w3.org/2000/svg">
<path d="M25.6506 20.2455C24.8708 19.0925 23.6778 18.2897 22.5299 17.722C21.3812 17.1546 20.2604 16.8169 19.6044 16.6152C19.1046 16.4631 18.5768 16.2657 18.2143 16.0565C18.0328 15.9532 17.8953 15.8473 17.8192 15.7612C17.7412 15.6729 17.7256 15.6187 17.725 15.5756C17.725 15.1658 17.725 14.6534 17.725 13.9676C17.7972 13.8179 17.8728 13.6959 17.9581 13.5825C18.1026 13.388 18.2951 13.1914 18.4881 12.8956C18.6484 12.6491 18.7913 12.3387 18.9019 11.9325C18.9991 11.8937 19.096 11.8488 19.1906 11.7946C19.4804 11.6306 19.7256 11.3916 19.9261 11.079C20.1288 10.765 20.3038 10.3713 20.4903 9.83808L20.4887 9.84164L20.4903 9.8377C20.5862 9.56105 20.6321 9.31805 20.6323 9.09698C20.6356 8.74172 20.5001 8.4338 20.2759 8.22595C20.1978 8.15241 20.1133 8.09677 20.0284 8.04867C20.0566 7.7752 20.1076 7.41239 20.1559 6.99398C20.212 6.50845 20.2625 5.95327 20.2625 5.37834C20.2604 4.46859 20.1422 3.50794 19.6726 2.67895C19.4373 2.26552 19.1072 1.88517 18.6564 1.5848C18.2411 1.30739 17.7226 1.10855 17.121 1.00378C16.7127 0.747187 16.3174 0.522563 15.8246 0.366422C15.2927 0.197437 14.6786 0.119203 13.8676 0.119578C13.6116 0.119578 13.3347 0.127078 13.0318 0.142172C12.185 0.145313 11.4918 0.229687 10.8223 0.228234C10.3554 0.227859 9.89457 0.19125 9.36067 0.0667031L9.07462 0L8.84672 0.156469C8.14555 0.644531 7.7692 1.37194 7.53896 2.18011C7.31147 2.99189 7.23775 3.90445 7.23707 4.80919C7.2373 5.98987 7.36603 7.15617 7.47548 8.03147C7.39205 8.07595 7.30912 8.12728 7.23049 8.19581C6.98882 8.40328 6.83733 8.72409 6.8415 9.09623C6.84173 9.31692 6.88771 9.55988 6.98356 9.8362L6.98401 9.83766C7.23312 10.5482 7.45838 11.0137 7.76314 11.3668C7.91503 11.5423 8.09151 11.6858 8.28326 11.7945C8.37739 11.8484 8.47369 11.8929 8.57045 11.9316C8.74402 12.5395 9.0363 12.9802 9.28695 13.2992C9.42792 13.4798 9.55247 13.6233 9.62951 13.7306C9.70328 13.8311 9.72518 13.8885 9.72958 13.9147C9.72958 14.6285 9.72958 15.1546 9.72958 15.5755C9.72981 15.609 9.7138 15.6678 9.6271 15.7622C9.50146 15.9018 9.22736 16.0798 8.89882 16.2305C8.57085 16.3838 8.19193 16.5165 7.8603 16.6124C6.96737 16.8715 5.27319 17.3771 3.77322 18.3615C3.02327 18.8542 2.31923 19.4708 1.80151 20.2409C1.28357 21.0103 0.958456 21.9333 0.9596 23.006C0.9596 23.1922 0.969264 23.3835 0.989165 23.5791L1.03206 24H26.4225L26.4654 23.5791C26.4853 23.3839 26.4949 23.1933 26.4949 23.007C26.496 21.9347 26.1701 21.0131 25.6506 20.2455ZM25.3702 23.0813H2.08436C2.08391 23.0565 2.08042 23.0303 2.08042 23.006C2.08127 22.0833 2.35229 21.3272 2.78331 20.6841C3.4289 19.7216 4.45558 19.011 5.49823 18.4957C6.54001 17.9803 7.58288 17.6663 8.23282 17.4787C8.74487 17.3301 9.33962 17.1151 9.84619 16.827C10.0995 16.682 10.3326 16.5187 10.52 16.3174C10.705 16.1186 10.8501 15.8663 10.8503 15.5756C10.8503 15.1467 10.8503 14.6109 10.8503 13.876V13.8523L10.8472 13.8286C10.8168 13.5989 10.7054 13.4177 10.5931 13.2616C10.4208 13.0261 10.2271 12.8213 10.0499 12.5557C9.87353 12.2912 9.70911 11.9718 9.61149 11.5222L9.55476 11.2595L9.24829 11.1698C9.10818 11.1285 9.00794 11.0887 8.92341 11.0406C8.79909 10.9681 8.68397 10.8712 8.53774 10.6483C8.39368 10.4269 8.23545 10.086 8.06183 9.5857V9.58537C7.9872 9.37219 7.9622 9.2107 7.9622 9.09623C7.96661 8.89955 8.01996 8.85328 8.0489 8.82347C8.07995 8.79478 8.13537 8.77289 8.19685 8.76173L8.68414 8.67239L8.63181 8.26542C8.51687 7.37255 8.35777 6.08423 8.35777 4.80914C8.35731 3.94748 8.43194 3.0923 8.63096 2.38641C8.79606 1.7903 9.055 1.31662 9.37725 1.01517C9.89497 1.11202 10.3744 1.14722 10.8223 1.14689C11.6123 1.14548 12.3023 1.05858 13.0621 1.06003H13.0801L13.0991 1.05933C13.3839 1.04498 13.6387 1.03814 13.8675 1.03814C14.5969 1.03847 15.0516 1.10667 15.4207 1.2233C15.7893 1.33992 16.105 1.51758 16.5318 1.78997L16.6417 1.85991L16.7785 1.87964C17.2791 1.95319 17.65 2.0993 17.9493 2.29772C18.3952 2.59411 18.6955 3.03159 18.8849 3.57422C19.0736 4.11469 19.1423 4.74844 19.1417 5.37825C19.1419 5.90869 19.0947 6.43617 19.0401 6.90741C18.9856 7.3793 18.9243 7.79091 18.8969 8.11247H18.8971C18.8921 8.16956 18.886 8.21869 18.879 8.274L18.8293 8.6655L19.2936 8.76562C19.3529 8.77852 19.3997 8.79937 19.4295 8.82806C19.4573 8.85787 19.5078 8.90953 19.5114 9.09689C19.5114 9.21098 19.4865 9.37214 19.4127 9.5842L19.4122 9.58533C19.1813 10.2535 18.9745 10.6346 18.7987 10.8331C18.7104 10.9332 18.6347 10.9917 18.5502 11.0405C18.4657 11.0886 18.3654 11.1285 18.2254 11.1697L17.9189 11.2594L17.8622 11.5221C17.7954 11.8318 17.7151 12.055 17.6303 12.2302C17.5024 12.4921 17.3652 12.6543 17.1883 12.8686C17.0132 13.08 16.8022 13.343 16.6373 13.7202L16.604 13.7956V13.8759C16.604 14.6109 16.604 15.1467 16.604 15.5755C16.6034 15.8562 16.7372 16.1077 16.9162 16.3055C17.1879 16.6044 17.5591 16.8205 17.9604 17.0093C18.3625 17.1962 18.8001 17.3495 19.2114 17.4757C20.0814 17.741 21.6499 18.2212 22.9764 19.0903C23.6393 19.5242 24.238 20.0506 24.6699 20.6905C25.1014 21.3314 25.373 22.0851 25.3739 23.007C25.3741 23.031 25.3706 23.0569 25.3702 23.0813Z" fill="black"/>
</svg>
